<?xml version="1.0" standalone="no"?><!DOCTYPE svg PUBLIC "-//W3C//DTD SVG 1.1//EN" "http://www.w3.org/Graphics/SVG/1.1/DTD/svg11.dtd"><svg t="1650875927176" class="icon" viewBox="0 0 1024 1024" version="1.1" xmlns="http://www.w3.org/2000/svg" p-id="3103" xmlns:xlink="http://www.w3.org/1999/xlink" width="200" height="200"><defs><style type="text/css"></style></defs><path d="M797.866667 673.706667H226.133333a128 128 0 0 1-103.253333-51.626667A128 128 0 0 1 102.826667 512a426.666667 426.666667 0 0 1 818.346666 0 128 128 0 0 1-20.053333 112.213333 128 128 0 0 1-103.253333 49.493334z m-285.866667-384a341.333333 341.333333 0 0 0-327.253333 244.48 42.666667 42.666667 0 0 0 6.826666 36.693333 42.666667 42.666667 0 0 0 34.56 17.493333h571.733334a42.666667 42.666667 0 0 0 34.56-17.493333 42.666667 42.666667 0 0 0 6.826666-36.693333A341.333333 341.333333 0 0 0 512 289.706667z" p-id="3104"></path><path d="M512 801.706667a170.666667 170.666667 0 0 1-170.666667-170.666667v-42.666667h341.333334v42.666667a170.666667 170.666667 0 0 1-170.666667 170.666667z m-73.813333-128a85.333333 85.333333 0 0 0 147.626666 0zM512 289.706667a42.666667 42.666667 0 0 1-42.666667-42.666667V128a42.666667 42.666667 0 0 1 85.333334 0v119.04a42.666667 42.666667 0 0 1-42.666667 42.666667zM512 943.36a42.666667 42.666667 0 0 1-42.666667-42.666667v-23.466666a42.666667 42.666667 0 0 1 85.333334 0v23.466666a42.666667 42.666667 0 0 1-42.666667 42.666667zM738.986667 869.546667a42.666667 42.666667 0 0 1-29.866667-12.373334l-22.186667-22.186666a42.666667 42.666667 0 0 1 0-60.16 42.666667 42.666667 0 0 1 60.586667 0l21.76 21.76a42.666667 42.666667 0 0 1 0 60.586666 42.666667 42.666667 0 0 1-30.293333 12.373334zM286.293333 869.546667a42.666667 42.666667 0 0 1-30.293333-12.373334 42.666667 42.666667 0 0 1 0-60.586666l21.76-21.76a42.666667 42.666667 0 0 1 60.586667 0 42.666667 42.666667 0 0 1 0 60.16l-21.76 21.76a42.666667 42.666667 0 0 1-30.293334 12.8z" p-id="3105"></path></svg>